<mxfile host="app.diagrams.net" modified="2020-10-07T21:43:25.387Z" agent="5.0 (Macintosh)" etag="XEkDLQKgn0GQC_EhiF6R" version="13.6.2" type="github">
  <diagram id="PWtybto-T6b13MQPVDj4" name="Page-1">
    <mxGraphModel dx="1298" dy="798" grid="1" gridSize="10" guides="1" tooltips="1" connect="1" arrows="1" fold="1" page="1" pageScale="1" pageWidth="850" pageHeight="1100" math="0" shadow="0">
      <root>
        <mxCell id="0" />
        <mxCell id="1" parent="0" />
        <mxCell id="3pFGiDuIdfAI9uqjbGSs-20" style="edgeStyle=orthogonalEdgeStyle;rounded=0;orthogonalLoop=1;jettySize=auto;html=1;exitX=0.5;exitY=0;exitDx=0;exitDy=0;entryX=0.5;entryY=1;entryDx=0;entryDy=0;" edge="1" parent="1" source="96zG2RHDdQJClAzp30Tf-1" target="3pFGiDuIdfAI9uqjbGSs-17">
          <mxGeometry relative="1" as="geometry" />
        </mxCell>
        <mxCell id="3pFGiDuIdfAI9uqjbGSs-21" style="edgeStyle=orthogonalEdgeStyle;rounded=0;orthogonalLoop=1;jettySize=auto;html=1;exitX=0.25;exitY=0;exitDx=0;exitDy=0;entryX=0.25;entryY=1;entryDx=0;entryDy=0;" edge="1" parent="1" source="96zG2RHDdQJClAzp30Tf-1" target="3pFGiDuIdfAI9uqjbGSs-17">
          <mxGeometry relative="1" as="geometry" />
        </mxCell>
        <mxCell id="3pFGiDuIdfAI9uqjbGSs-22" style="edgeStyle=orthogonalEdgeStyle;rounded=0;orthogonalLoop=1;jettySize=auto;html=1;exitX=0.75;exitY=0;exitDx=0;exitDy=0;entryX=0.75;entryY=1;entryDx=0;entryDy=0;" edge="1" parent="1" source="96zG2RHDdQJClAzp30Tf-1" target="3pFGiDuIdfAI9uqjbGSs-17">
          <mxGeometry relative="1" as="geometry" />
        </mxCell>
        <mxCell id="96zG2RHDdQJClAzp30Tf-1" value="&amp;nbsp;Embedding Layer" style="rounded=0;whiteSpace=wrap;html=1;" parent="1" vertex="1">
          <mxGeometry x="90" y="525" width="150" height="60" as="geometry" />
        </mxCell>
        <mxCell id="3pFGiDuIdfAI9uqjbGSs-6" style="edgeStyle=orthogonalEdgeStyle;rounded=0;orthogonalLoop=1;jettySize=auto;html=1;entryX=0;entryY=0.5;entryDx=0;entryDy=0;" edge="1" parent="1" target="3pFGiDuIdfAI9uqjbGSs-3">
          <mxGeometry relative="1" as="geometry">
            <mxPoint x="230" y="150" as="sourcePoint" />
          </mxGeometry>
        </mxCell>
        <mxCell id="3pFGiDuIdfAI9uqjbGSs-11" style="edgeStyle=orthogonalEdgeStyle;rounded=0;orthogonalLoop=1;jettySize=auto;html=1;entryX=0.5;entryY=1;entryDx=0;entryDy=0;" edge="1" parent="1" source="3pFGiDuIdfAI9uqjbGSs-2" target="3pFGiDuIdfAI9uqjbGSs-10">
          <mxGeometry relative="1" as="geometry" />
        </mxCell>
        <mxCell id="3pFGiDuIdfAI9uqjbGSs-2" value="Turn on &lt;b&gt;John&#39;s lights&lt;/b&gt;" style="text;html=1;strokeColor=none;fillColor=none;align=center;verticalAlign=middle;whiteSpace=wrap;rounded=0;" vertex="1" parent="1">
          <mxGeometry x="510" y="140" width="130" height="20" as="geometry" />
        </mxCell>
        <mxCell id="3pFGiDuIdfAI9uqjbGSs-7" style="edgeStyle=orthogonalEdgeStyle;rounded=0;orthogonalLoop=1;jettySize=auto;html=1;" edge="1" parent="1" source="3pFGiDuIdfAI9uqjbGSs-3" target="3pFGiDuIdfAI9uqjbGSs-2">
          <mxGeometry relative="1" as="geometry" />
        </mxCell>
        <mxCell id="3pFGiDuIdfAI9uqjbGSs-3" value="NER" style="rounded=0;whiteSpace=wrap;html=1;" vertex="1" parent="1">
          <mxGeometry x="290" y="120" width="120" height="60" as="geometry" />
        </mxCell>
        <mxCell id="3pFGiDuIdfAI9uqjbGSs-15" style="edgeStyle=orthogonalEdgeStyle;rounded=0;orthogonalLoop=1;jettySize=auto;html=1;entryX=0.5;entryY=1;entryDx=0;entryDy=0;" edge="1" parent="1" source="3pFGiDuIdfAI9uqjbGSs-8" target="3pFGiDuIdfAI9uqjbGSs-14">
          <mxGeometry relative="1" as="geometry" />
        </mxCell>
        <mxCell id="3pFGiDuIdfAI9uqjbGSs-8" value="Query: Turn off John&#39;s lights" style="text;html=1;strokeColor=none;fillColor=none;align=center;verticalAlign=middle;whiteSpace=wrap;rounded=0;fontStyle=1" vertex="1" parent="1">
          <mxGeometry x="110" y="745" width="110" height="20" as="geometry" />
        </mxCell>
        <mxCell id="3pFGiDuIdfAI9uqjbGSs-9" value="Turn on John&#39;s lights" style="text;html=1;strokeColor=none;fillColor=none;align=center;verticalAlign=middle;whiteSpace=wrap;rounded=0;" vertex="1" parent="1">
          <mxGeometry x="60" y="140" width="210" height="20" as="geometry" />
        </mxCell>
        <mxCell id="3pFGiDuIdfAI9uqjbGSs-10" value="Nouns from NER" style="rounded=0;whiteSpace=wrap;html=1;fillColor=#ffe6cc;strokeColor=#d79b00;" vertex="1" parent="1">
          <mxGeometry x="700" y="110" width="120" height="60" as="geometry" />
        </mxCell>
        <mxCell id="3pFGiDuIdfAI9uqjbGSs-16" style="edgeStyle=orthogonalEdgeStyle;rounded=0;orthogonalLoop=1;jettySize=auto;html=1;entryX=0.5;entryY=1;entryDx=0;entryDy=0;" edge="1" parent="1" source="3pFGiDuIdfAI9uqjbGSs-14" target="96zG2RHDdQJClAzp30Tf-1">
          <mxGeometry relative="1" as="geometry" />
        </mxCell>
        <mxCell id="3pFGiDuIdfAI9uqjbGSs-18" style="edgeStyle=orthogonalEdgeStyle;rounded=0;orthogonalLoop=1;jettySize=auto;html=1;exitX=0.25;exitY=0;exitDx=0;exitDy=0;entryX=0.25;entryY=1;entryDx=0;entryDy=0;" edge="1" parent="1" source="3pFGiDuIdfAI9uqjbGSs-14" target="96zG2RHDdQJClAzp30Tf-1">
          <mxGeometry relative="1" as="geometry" />
        </mxCell>
        <mxCell id="3pFGiDuIdfAI9uqjbGSs-19" style="edgeStyle=orthogonalEdgeStyle;rounded=0;orthogonalLoop=1;jettySize=auto;html=1;exitX=0.75;exitY=0;exitDx=0;exitDy=0;entryX=0.75;entryY=1;entryDx=0;entryDy=0;" edge="1" parent="1" source="3pFGiDuIdfAI9uqjbGSs-14" target="96zG2RHDdQJClAzp30Tf-1">
          <mxGeometry relative="1" as="geometry" />
        </mxCell>
        <mxCell id="3pFGiDuIdfAI9uqjbGSs-14" value="Tokenizer " style="rounded=0;whiteSpace=wrap;html=1;" vertex="1" parent="1">
          <mxGeometry x="90" y="635" width="150" height="60" as="geometry" />
        </mxCell>
        <mxCell id="3pFGiDuIdfAI9uqjbGSs-26" style="edgeStyle=orthogonalEdgeStyle;rounded=0;orthogonalLoop=1;jettySize=auto;html=1;exitX=0.5;exitY=0;exitDx=0;exitDy=0;entryX=0.5;entryY=1;entryDx=0;entryDy=0;" edge="1" parent="1" source="3pFGiDuIdfAI9uqjbGSs-17" target="3pFGiDuIdfAI9uqjbGSs-24">
          <mxGeometry relative="1" as="geometry" />
        </mxCell>
        <mxCell id="3pFGiDuIdfAI9uqjbGSs-17" value="Average Pooling" style="rounded=0;whiteSpace=wrap;html=1;" vertex="1" parent="1">
          <mxGeometry x="90" y="435" width="150" height="60" as="geometry" />
        </mxCell>
        <mxCell id="3pFGiDuIdfAI9uqjbGSs-24" value="Final Embedding for Entity" style="rounded=1;whiteSpace=wrap;html=1;" vertex="1" parent="1">
          <mxGeometry x="90" y="335" width="150" height="55" as="geometry" />
        </mxCell>
      </root>
    </mxGraphModel>
  </diagram>
</mxfile>
